<svg width="21" height="20" viewBox="0 0 21 20" fill="none" xmlns="http://www.w3.org/2000/svg">
<path d="M10.6582 1.80184C13.3283 1.80184 13.6446 1.812 14.699 1.86011C15.674 1.90461 16.2035 2.06752 16.5559 2.20443C17.0227 2.38583 17.3558 2.60257 17.7057 2.95248C18.0556 3.30239 18.2724 3.63555 18.4537 4.10229C18.5907 4.4547 18.7536 4.98419 18.7981 5.95914C18.8462 7.01364 18.8564 7.32989 18.8564 10C18.8564 12.6701 18.8462 12.9864 18.7981 14.0409C18.7536 15.0158 18.5907 15.5453 18.4537 15.8978C18.2724 16.3645 18.0556 16.6976 17.7057 17.0476C17.3558 17.3975 17.0227 17.6142 16.5559 17.7956C16.2035 17.9325 15.674 18.0954 14.699 18.1399C13.6447 18.188 13.3285 18.1982 10.6582 18.1982C7.9879 18.1982 7.67165 18.188 6.61734 18.1399C5.64235 18.0954 5.11286 17.9325 4.76049 17.7956C4.29372 17.6142 3.96055 17.3975 3.61064 17.0476C3.26073 16.6976 3.044 16.3645 2.86263 15.8978C2.72568 15.5453 2.56277 15.0158 2.51827 14.0409C2.47016 12.9864 2.46 12.6701 2.46 10C2.46 7.32989 2.47016 7.01364 2.51827 5.95918C2.56277 4.98419 2.72568 4.4547 2.86263 4.10229C3.044 3.63555 3.26073 3.30239 3.61064 2.95248C3.96055 2.60257 4.29372 2.38583 4.76049 2.20443C5.11286 2.06752 5.64235 1.90461 6.6173 1.86011C7.6718 1.812 7.98806 1.80184 10.6582 1.80184ZM10.6582 0C7.94233 0 7.60182 0.0115116 6.53522 0.0601777C5.47079 0.108764 4.7439 0.277786 4.10778 0.525007C3.4502 0.780564 2.89252 1.1225 2.33659 1.67843C1.78066 2.23436 1.43873 2.79203 1.18317 3.44962C0.935949 4.08573 0.766928 4.81263 0.718341 5.87705C0.669675 6.94362 0.658203 7.28416 0.658203 10C0.658203 12.7159 0.669675 13.0564 0.718341 14.123C0.766928 15.1874 0.935949 15.9143 1.18317 16.5504C1.43873 17.208 1.78066 17.7657 2.33659 18.3216C2.89252 18.8775 3.4502 19.2195 4.10778 19.475C4.7439 19.7223 5.47079 19.8913 6.53522 19.9399C7.60182 19.9885 7.94233 20 10.6582 20C13.374 20 13.7146 19.9885 14.7812 19.9399C15.8456 19.8913 16.5725 19.7223 17.2086 19.475C17.8662 19.2195 18.4238 18.8775 18.9798 18.3216C19.5357 17.7657 19.8776 17.208 20.1332 16.5504C20.3804 15.9143 20.5494 15.1874 20.598 14.123C20.6467 13.0564 20.6582 12.7159 20.6582 10C20.6582 7.28416 20.6467 6.94362 20.598 5.87705C20.5494 4.81263 20.3804 4.08573 20.1332 3.44962C19.8776 2.79203 19.5357 2.23436 18.9798 1.67843C18.4238 1.1225 17.8662 0.780564 17.2086 0.525007C16.5725 0.277786 15.8456 0.108764 14.7812 0.0601777C13.7146 0.0115116 13.374 0 10.6582 0ZM10.6582 4.86487C7.82213 4.86487 5.52303 7.16397 5.52303 10C5.52303 12.8361 7.82213 15.1352 10.6582 15.1352C13.4942 15.1352 15.7933 12.8361 15.7933 10C15.7933 7.16397 13.4942 4.86487 10.6582 4.86487ZM10.6582 13.3334C8.81725 13.3334 7.32483 11.841 7.32483 10C7.32483 8.15908 8.81725 6.66667 10.6582 6.66667C12.4991 6.66667 13.9915 8.15908 13.9915 10C13.9915 11.841 12.4991 13.3334 10.6582 13.3334ZM17.1962 4.66199C17.1962 5.32474 16.659 5.86201 15.9962 5.86201C15.3335 5.86201 14.7962 5.32474 14.7962 4.66199C14.7962 3.99924 15.3335 3.462 15.9962 3.462C16.659 3.462 17.1962 3.99924 17.1962 4.66199Z" fill="#0A0A08"/>
</svg>
