<svg width="21" height="20" viewBox="0 0 21 20" fill="none" xmlns="http://www.w3.org/2000/svg">
<g clip-path="url(#clip0_332_10459)">
<path d="M0.561035 2.65071C0.561035 2.00425 0.787298 1.47092 1.23982 1.05071C1.69235 0.630511 2.28063 0.42041 3.00467 0.42041C3.71578 0.42041 4.29114 0.627279 4.73073 1.04102C5.18326 1.46768 5.40952 2.02364 5.40952 2.70889C5.40952 3.3295 5.18972 3.84667 4.75013 4.26041C4.2976 4.68708 3.70285 4.90041 2.96588 4.90041H2.94649C2.23538 4.90041 1.66003 4.68708 1.22043 4.26041C0.780833 3.83374 0.561035 3.29718 0.561035 2.65071ZM0.813156 19.6204V6.66526H5.11861V19.6204H0.813156ZM7.50407 19.6204H11.8095V12.3865C11.8095 11.9339 11.8612 11.5849 11.9647 11.3392C12.1457 10.8996 12.4204 10.5279 12.7889 10.224C13.1574 9.92021 13.6196 9.76829 14.1756 9.76829C15.6237 9.76829 16.3477 10.7445 16.3477 12.6968V19.6204H20.6532V12.1925C20.6532 10.279 20.2006 8.82768 19.2956 7.83859C18.3905 6.8495 17.1946 6.35496 15.7077 6.35496C14.0398 6.35496 12.7404 7.07253 11.8095 8.50768V8.54647H11.7901L11.8095 8.50768V6.66526H7.50407C7.52992 7.079 7.54285 8.36546 7.54285 10.5247C7.54285 12.6838 7.52992 15.7158 7.50407 19.6204Z" fill="black"/>
</g>
<defs>
<clipPath id="clip0_332_10459">
<rect width="20" height="19.3939" fill="white" transform="translate(0.658203 0.302979)"/>
</clipPath>
</defs>
</svg>
