<svg width="89" height="28" viewBox="0 0 89 28" fill="none" xmlns="http://www.w3.org/2000/svg">
<path fill-rule="evenodd" clip-rule="evenodd" d="M11.6364 18.7114C11.6364 16.1093 13.7458 13.9999 16.3479 13.9999H24.0577V2.86353H16.3479C7.59535 2.86353 0.5 9.95887 0.5 18.7114V25.1363H11.6364V18.7114ZM35.1941 13.9999H24.0577V25.1363H35.1941V13.9999Z" fill="#0047FF"/>
<path d="M46.6135 22H43.3919L49.2575 5.33884H52.9835L58.8572 22H55.6356L51.1856 8.75568H51.0554L46.6135 22ZM46.7193 15.4673H55.5054V17.8917H46.7193V15.4673ZM63.8665 5.33884V22H60.9215V5.33884H63.8665ZM73.1347 9.50413V11.782H65.9512V9.50413H73.1347ZM67.7247 6.51033H70.6697V18.2415C70.6697 18.6374 70.7293 18.9411 70.8486 19.1526C70.9734 19.3587 71.1361 19.4997 71.3368 19.5757C71.5374 19.6516 71.7598 19.6896 72.0039 19.6896C72.1883 19.6896 72.3564 19.676 72.5083 19.6489C72.6655 19.6218 72.7849 19.5974 72.8662 19.5757L73.3625 21.878C73.2052 21.9322 72.9801 21.9919 72.6872 22.0569C72.3998 22.122 72.0473 22.16 71.6296 22.1708C70.892 22.1925 70.2276 22.0814 69.6365 21.8373C69.0453 21.5878 68.5762 21.2027 68.2291 20.6821C67.8874 20.1614 67.7193 19.5106 67.7247 18.7296V6.51033ZM80.9141 22.2441C79.6938 22.2441 78.6362 21.9756 77.7413 21.4387C76.8464 20.9017 76.1522 20.1506 75.6587 19.1852C75.1705 18.2198 74.9265 17.0917 74.9265 15.8009C74.9265 14.5101 75.1705 13.3793 75.6587 12.4084C76.1522 11.4376 76.8464 10.6838 77.7413 10.1468C78.6362 9.60989 79.6938 9.34143 80.9141 9.34143C82.1344 9.34143 83.192 9.60989 84.0869 10.1468C84.9818 10.6838 85.6733 11.4376 86.1614 12.4084C86.6549 13.3793 86.9017 14.5101 86.9017 15.8009C86.9017 17.0917 86.6549 18.2198 86.1614 19.1852C85.6733 20.1506 84.9818 20.9017 84.0869 21.4387C83.192 21.9756 82.1344 22.2441 80.9141 22.2441ZM80.9304 19.8848C81.592 19.8848 82.1452 19.7031 82.59 19.3397C83.0347 18.9709 83.3655 18.4774 83.5825 17.8591C83.8048 17.2408 83.916 16.552 83.916 15.7927C83.916 15.028 83.8048 14.3365 83.5825 13.7182C83.3655 13.0945 83.0347 12.5983 82.59 12.2295C82.1452 11.8607 81.592 11.6763 80.9304 11.6763C80.2524 11.6763 79.6884 11.8607 79.2382 12.2295C78.7935 12.5983 78.4599 13.0945 78.2376 13.7182C78.0206 14.3365 77.9121 15.028 77.9121 15.7927C77.9121 16.552 78.0206 17.2408 78.2376 17.8591C78.4599 18.4774 78.7935 18.9709 79.2382 19.3397C79.6884 19.7031 80.2524 19.8848 80.9304 19.8848Z" fill="black"/>
</svg>
