<svg width="301" height="95" viewBox="0 0 301 95" fill="none" xmlns="http://www.w3.org/2000/svg">
<path fill-rule="evenodd" clip-rule="evenodd" d="M38.8713 63.6671C38.8713 54.7382 46.1095 47.5 55.0384 47.5H81.4936V9.28687H55.0384C25.005 9.28687 0.658203 33.6337 0.658203 63.6671V85.7131H38.8713V63.6671ZM119.706 47.5H81.4933V85.7131H119.706V47.5Z" fill="#0047FF"/>
<path d="M158.322 76H147.268L167.395 18.8292H180.18L200.335 76H189.281L174.011 30.5537H173.564L158.322 76ZM158.685 53.5839H188.834V61.9027H158.685V53.5839ZM217.524 18.8292V76H207.419V18.8292H217.524ZM249.327 33.1219V40.9382H224.677V33.1219H249.327ZM230.763 22.849H240.868V63.1031C240.868 64.4616 241.073 65.5038 241.483 66.2296C241.911 66.9368 242.469 67.4207 243.157 67.6812C243.846 67.9417 244.609 68.072 245.446 68.072C246.079 68.072 246.656 68.0255 247.177 67.9324C247.717 67.8394 248.126 67.7556 248.406 67.6812L250.108 75.5813C249.569 75.7674 248.796 75.9721 247.791 76.1954C246.805 76.4187 245.595 76.549 244.162 76.5862C241.631 76.6607 239.352 76.2792 237.323 75.4417C235.295 74.5856 233.685 73.2643 232.494 71.4777C231.321 69.6911 230.744 67.4579 230.763 64.778V22.849ZM276.021 76.8375C271.834 76.8375 268.205 75.9163 265.134 74.0738C262.063 72.2314 259.681 69.6539 257.987 66.3413C256.313 63.0286 255.475 59.1577 255.475 54.7284C255.475 50.2992 256.313 46.419 257.987 43.0877C259.681 39.7565 262.063 37.1696 265.134 35.3272C268.205 33.4848 271.834 32.5636 276.021 32.5636C280.208 32.5636 283.837 33.4848 286.908 35.3272C289.979 37.1696 292.351 39.7565 294.026 43.0877C295.72 46.419 296.567 50.2992 296.567 54.7284C296.567 59.1577 295.72 63.0286 294.026 66.3413C292.351 69.6539 289.979 72.2314 286.908 74.0738C283.837 75.9163 280.208 76.8375 276.021 76.8375ZM276.077 68.742C278.347 68.742 280.245 68.1185 281.771 66.8717C283.297 65.6062 284.433 63.9126 285.177 61.7911C285.94 59.6695 286.322 57.306 286.322 54.7005C286.322 52.0765 285.94 49.7037 285.177 47.5821C284.433 45.4419 283.297 43.7391 281.771 42.4736C280.245 41.2081 278.347 40.5753 276.077 40.5753C273.75 40.5753 271.815 41.2081 270.27 42.4736C268.744 43.7391 267.6 45.4419 266.837 47.5821C266.092 49.7037 265.72 52.0765 265.72 54.7005C265.72 57.306 266.092 59.6695 266.837 61.7911C267.6 63.9126 268.744 65.6062 270.27 66.8717C271.815 68.1185 273.75 68.742 276.077 68.742Z" fill="black"/>
</svg>
